# xmcd
#
# Track frame offsets:
#	150
#	25580
#	45476
#	65806
#	89126
#	114755
#	141671
#	163823
#	189778
#	208039
#
# Disc length: 3103 seconds
#
# Revision: 6
# Processed by: cddbd v1.5.2PL0 Copyright (c) Steve Scherf et al.
# Submitted via: EasyCDDAExtractor 15.3.0.1
#
DISCID=8c0c1d0a
DTITLE=Emmanuel - Retro - En Vivo
DYEAR=2007
DGENRE=Latin
TTITLE0=La Chica De Humo
TTITLE1=Pobre Diablo
TTITLE2=La Vida Caminaba Sola
TTITLE3=Sentirme Vivo
TTITLE4=Tengo Mucho Que Aprender De Ti
TTITLE5=Toda La Vida
TTITLE6=Toda Se Derrumbo
TTITLE7=La Ultima Luna
TTITLE8=Detenedla Ya
TTITLE9=Corazon De Melao
EXTD=
EXTT0=
EXTT1=
EXTT2=
EXTT3=
EXTT4=
EXTT5=
EXTT6=
EXTT7=
EXTT8=
EXTT9=
PLAYORDER=
